<?xml version="1.0" encoding="UTF-8" standalone="no"?>
<!-- Created with Inkscape (http://www.inkscape.org/) -->

<svg
   xmlns:dc="http://purl.org/dc/elements/1.1/"
   xmlns:cc="http://creativecommons.org/ns#"
   xmlns:rdf="http://www.w3.org/1999/02/22-rdf-syntax-ns#"
   xmlns:svg="http://www.w3.org/2000/svg"
   xmlns="http://www.w3.org/2000/svg"
   xmlns:sodipodi="http://sodipodi.sourceforge.net/DTD/sodipodi-0.dtd"
   xmlns:inkscape="http://www.inkscape.org/namespaces/inkscape"
   width="605.26398"
   height="689.82159"
   id="svg2"
   version="1.1"
   inkscape:version="0.48.4 r9939"
   sodipodi:docname="casestudy.svg">
  <defs
     id="defs4" />
  <sodipodi:namedview
     id="base"
     pagecolor="#ffffff"
     bordercolor="#666666"
     borderopacity="1.0"
     inkscape:pageopacity="0.0"
     inkscape:pageshadow="2"
     inkscape:zoom="0.7"
     inkscape:cx="707.19987"
     inkscape:cy="274.53739"
     inkscape:document-units="px"
     inkscape:current-layer="layer1"
     showgrid="false"
     inkscape:window-width="1366"
     inkscape:window-height="744"
     inkscape:window-x="0"
     inkscape:window-y="24"
     inkscape:window-maximized="1"
     fit-margin-top="0"
     fit-margin-left="0"
     fit-margin-right="0"
     fit-margin-bottom="0" />
  <metadata
     id="metadata7">
    <rdf:RDF>
      <cc:Work
         rdf:about="">
        <dc:format>image/svg+xml</dc:format>
        <dc:type
           rdf:resource="http://purl.org/dc/dcmitype/StillImage" />
        <dc:title />
      </cc:Work>
    </rdf:RDF>
  </metadata>
  <g
     inkscape:label="Layer 1"
     inkscape:groupmode="layer"
     id="layer1"
     transform="translate(-85.791397,-277.5625)">
    <rect
       style="fill:#ffffff;stroke:#000000;stroke-width:3.90193581999999983;stroke-miterlimit:4;stroke-dasharray:none"
       id="rect3003"
       width="469.30884"
       height="286.72147"
       x="215.87361"
       y="673.0058" />
    <path
       sodipodi:type="star"
       style="fill:#ffffff;stroke:#000000;stroke-width:2.19764255999999980;stroke-miterlimit:4;stroke-dasharray:none"
       id="path3009"
       sodipodi:sides="3"
       sodipodi:cx="185.86807"
       sodipodi:cy="191.7122"
       sodipodi:r1="95.980438"
       sodipodi:r2="47.990219"
       sodipodi:arg1="0.5295896"
       sodipodi:arg2="1.5767872"
       inkscape:flatsided="true"
       inkscape:rounded="0"
       inkscape:randomized="0"
       d="M 268.70058,240.19953 102.46057,239.2036 186.44307,95.733488 z"
       inkscape:transform-center-x="17.95003"
       inkscape:transform-center-y="3.6183187"
       transform="matrix(2.8311155,0,0,1.2376682,-75.026799,374.82959)" />
    <path
       sodipodi:type="arc"
       style="opacity:0;fill:#000000;stroke:#000000"
       id="path3019"
       sodipodi:cx="209.28572"
       sodipodi:cy="293.07648"
       sodipodi:rx="87.85714"
       sodipodi:ry="60.714287"
       d="m 297.14286,293.07648 c 0,33.53157 -39.33498,60.71428 -87.85714,60.71428 -48.52216,0 -87.85714,-27.18271 -87.85714,-60.71428 0,-33.53158 39.33498,-60.71429 87.85714,-60.71429 48.52216,0 87.85714,27.18271 87.85714,60.71429 z" />
    <path
       sodipodi:type="arc"
       style="opacity:0;color:#000000;fill:#000000;fill-opacity:1;fill-rule:nonzero;stroke:#000000;stroke-width:1;stroke-linecap:butt;stroke-linejoin:miter;stroke-miterlimit:4;stroke-opacity:1;stroke-dasharray:none;stroke-dashoffset:0;marker:none;visibility:visible;display:inline;overflow:visible;enable-background:accumulate"
       id="path3021"
       sodipodi:cx="237.14285"
       sodipodi:cy="310.21933"
       sodipodi:rx="35.714287"
       sodipodi:ry="29.285715"
       d="m 272.85714,310.21933 c 0,16.17405 -15.98983,29.28571 -35.71429,29.28571 -19.72445,0 -35.71428,-13.11166 -35.71428,-29.28571 0,-16.17405 15.98983,-29.28572 35.71428,-29.28572 19.72446,0 35.71429,13.11167 35.71429,29.28572 z" />
    <path
       sodipodi:type="arc"
       style="fill:#ffffff;stroke:#000000"
       id="path3005"
       sodipodi:cx="122.14286"
       sodipodi:cy="823.07648"
       sodipodi:rx="30.714285"
       sodipodi:ry="32.142857"
       d="m 152.85715,823.07648 c 0,17.75201 -13.75126,32.14285 -30.71429,32.14285 -16.96303,0 -30.714284,-14.39084 -30.714284,-32.14285 0,-17.75201 13.751254,-32.14286 30.714284,-32.14286 16.96303,0 30.71429,14.39085 30.71429,32.14286 z"
       transform="matrix(0.95195151,0,0,0.89123307,4.3535506,93.059039)" />
    <path
       style="fill:none;stroke:#000000;stroke-width:0.54928124px;stroke-linecap:butt;stroke-linejoin:miter;stroke-opacity:1"
       d="m 122.14286,856.49989 0,77.43887"
       id="path3016"
       inkscape:connector-curvature="0" />
    <path
       style="fill:none;stroke:#000000;stroke-width:1.02334726px;stroke-linecap:butt;stroke-linejoin:miter;stroke-opacity:1"
       d="m 105.06753,957.39617 17.2079,-22.95763 20.64948,20.6871"
       id="path3028"
       inkscape:connector-curvature="0" />
    <path
       sodipodi:type="arc"
       style="fill:#ffffff;stroke:#000000"
       id="path3005-8"
       sodipodi:cx="122.14286"
       sodipodi:cy="823.07648"
       sodipodi:rx="30.714285"
       sodipodi:ry="32.142857"
       d="m 152.85715,823.07648 c 0,17.75201 -13.75126,32.14285 -30.71429,32.14285 -16.96303,0 -30.714284,-14.39084 -30.714284,-32.14285 0,-17.75201 13.751254,-32.14286 30.714284,-32.14286 16.96303,0 30.71429,14.39085 30.71429,32.14286 z"
       transform="matrix(0.58591016,0,0,0.51014017,251.29239,440.37434)" />
    <path
       style="fill:none;stroke:#000000;stroke-width:0.40180382px;stroke-linecap:butt;stroke-linejoin:miter;stroke-opacity:1"
       d="m 310.1558,896.09502 24.98179,0"
       id="path3014-8"
       inkscape:connector-curvature="0" />
    <path
       style="fill:none;stroke:#000000;stroke-width:0.32602581px;stroke-linecap:butt;stroke-linejoin:miter;stroke-opacity:1"
       d="m 323.78973,877.3665 0,44.32583"
       id="path3016-6"
       inkscape:connector-curvature="0" />
    <path
       style="fill:none;stroke:#000000;stroke-width:0.60740763px;stroke-linecap:butt;stroke-linejoin:miter;stroke-opacity:1"
       d="m 313.28016,935.11936 10.59117,-13.14095 12.70941,11.84126"
       id="path3028-7"
       inkscape:connector-curvature="0" />
    <path
       sodipodi:type="arc"
       style="fill:#ffffff;stroke:#000000"
       id="path3005-8-6"
       sodipodi:cx="122.14286"
       sodipodi:cy="823.07648"
       sodipodi:rx="30.714285"
       sodipodi:ry="32.142857"
       d="m 152.85715,823.07648 c 0,17.75201 -13.75126,32.14285 -30.71429,32.14285 -16.96303,0 -30.714284,-14.39084 -30.714284,-32.14285 0,-17.75201 13.751254,-32.14286 30.714284,-32.14286 16.96303,0 30.71429,14.39085 30.71429,32.14286 z"
       transform="matrix(0.58591016,0,0,0.51014017,317.00669,445.80242)" />
    <path
       sodipodi:type="star"
       style="fill:#ffffff;stroke:#000000"
       id="path3103"
       sodipodi:sides="3"
       sodipodi:cx="372.85715"
       sodipodi:cy="888.43359"
       sodipodi:r1="27.19919"
       sodipodi:r2="13.599595"
       sodipodi:arg1="0.52240343"
       sodipodi:arg2="1.569601"
       inkscape:flatsided="false"
       inkscape:rounded="0"
       inkscape:randomized="0"
       d="m 396.42858,902.00502 -23.55518,0.0282 -23.55517,0.0282 11.7532,-20.41346 11.7532,-20.41346 11.80198,20.3853 z"
       inkscape:transform-center-x="-0.016256189"
       inkscape:transform-center-y="-6.7857143"
       transform="translate(15.714286,21.5)" />
    <path
       style="fill:none;stroke:#000000;stroke-width:1px;stroke-linecap:butt;stroke-linejoin:miter;stroke-opacity:1"
       d="m 379.28571,923.50504 0.35715,13.21429"
       id="path3111"
       inkscape:connector-curvature="0" />
    <path
       style="fill:none;stroke:#000000;stroke-width:1px;stroke-linecap:butt;stroke-linejoin:miter;stroke-opacity:1"
       d="m 393.92857,923.1479 0,12.85714"
       id="path3113"
       inkscape:connector-curvature="0" />
    <path
       sodipodi:type="arc"
       style="fill:#ffffff;stroke:#000000"
       id="path3115"
       sodipodi:cx="309.46429"
       sodipodi:cy="937.00507"
       sodipodi:rx="5.5357141"
       sodipodi:ry="3.5714285"
       d="m 315.00001,937.00507 c 0,1.97244 -2.47843,3.57142 -5.53572,3.57142 -3.05729,0 -5.53571,-1.59898 -5.53571,-3.57142 0,-1.97245 2.47842,-3.57143 5.53571,-3.57143 3.05729,0 5.53572,1.59898 5.53572,3.57143 z" />
    <path
       transform="translate(28.749992,-2.627752e-5)"
       sodipodi:type="arc"
       style="fill:#ffffff;stroke:#000000"
       id="path3115-9"
       sodipodi:cx="309.46429"
       sodipodi:cy="937.00507"
       sodipodi:rx="5.5357141"
       sodipodi:ry="3.5714285"
       d="m 315.00001,937.00507 c 0,1.97244 -2.47843,3.57142 -5.53572,3.57142 -3.05729,0 -5.53571,-1.59898 -5.53571,-3.57142 0,-1.97245 2.47842,-3.57143 5.53571,-3.57143 3.05729,0 5.53572,1.59898 5.53572,3.57143 z" />
    <path
       transform="translate(69.107134,0.428545)"
       sodipodi:type="arc"
       style="fill:#ffffff;stroke:#000000"
       id="path3115-91"
       sodipodi:cx="309.46429"
       sodipodi:cy="937.00507"
       sodipodi:rx="5.5357141"
       sodipodi:ry="3.5714285"
       d="m 315.00001,937.00507 c 0,1.97244 -2.47843,3.57142 -5.53572,3.57142 -3.05729,0 -5.53571,-1.59898 -5.53571,-3.57142 0,-1.97245 2.47842,-3.57143 5.53571,-3.57143 3.05729,0 5.53572,1.59898 5.53572,3.57143 z" />
    <path
       transform="translate(88.035709,0.4285451)"
       sodipodi:type="arc"
       style="fill:#ffffff;stroke:#000000"
       id="path3115-7"
       sodipodi:cx="309.46429"
       sodipodi:cy="937.00507"
       sodipodi:rx="5.5357141"
       sodipodi:ry="3.5714285"
       d="m 315.00001,937.00507 c 0,1.97244 -2.47843,3.57142 -5.53572,3.57142 -3.05729,0 -5.53571,-1.59898 -5.53571,-3.57142 0,-1.97245 2.47842,-3.57143 5.53571,-3.57143 3.05729,0 5.53572,1.59898 5.53572,3.57143 z" />
    <path
       transform="matrix(1.4094247,0,0,1.6346083,-334.81883,-571.21572)"
       sodipodi:type="arc"
       style="fill:#ffffff;stroke:#000000"
       id="path3115-9-6"
       sodipodi:cx="309.46429"
       sodipodi:cy="937.00507"
       sodipodi:rx="5.5357141"
       sodipodi:ry="3.5714285"
       d="m 315.00001,937.00507 c 0,1.97244 -2.47843,3.57142 -5.53572,3.57142 -3.05729,0 -5.53571,-1.59898 -5.53571,-3.57142 0,-1.97245 2.47842,-3.57143 5.53571,-3.57143 3.05729,0 5.53572,1.59898 5.53572,3.57143 z" />
    <path
       transform="matrix(1.4094247,0,0,1.6346083,-290.15897,-570.8845)"
       sodipodi:type="arc"
       style="fill:#ffffff;stroke:#000000"
       id="path3115-9-6-9"
       sodipodi:cx="309.46429"
       sodipodi:cy="937.00507"
       sodipodi:rx="5.5357141"
       sodipodi:ry="3.5714285"
       d="m 315.00001,937.00507 c 0,1.97244 -2.47843,3.57142 -5.53572,3.57142 -3.05729,0 -5.53571,-1.59898 -5.53571,-3.57142 0,-1.97245 2.47842,-3.57143 5.53571,-3.57143 3.05729,0 5.53572,1.59898 5.53572,3.57143 z" />
    <path
       transform="matrix(1.4094247,0,0,1.6346083,-341.88091,-626.84551)"
       sodipodi:type="arc"
       style="fill:#ffffff;stroke:#000000"
       id="path3115-9-6-9-9"
       sodipodi:cx="309.46429"
       sodipodi:cy="937.00507"
       sodipodi:rx="5.5357141"
       sodipodi:ry="3.5714285"
       d="m 315.00001,937.00507 c 0,1.97244 -2.47843,3.57142 -5.53572,3.57142 -3.05729,0 -5.53571,-1.59898 -5.53571,-3.57142 0,-1.97245 2.47842,-3.57143 5.53571,-3.57143 3.05729,0 5.53572,1.59898 5.53572,3.57143 z" />
    <path
       style="fill:none;stroke:#000000;stroke-width:1px;stroke-linecap:butt;stroke-linejoin:miter;stroke-opacity:1"
       d="M 121.42857,881.6479 97.857143,899.50504"
       id="path3214"
       inkscape:connector-curvature="0" />
    <path
       style="fill:none;stroke:#000000;stroke-width:1px;stroke-linecap:butt;stroke-linejoin:miter;stroke-opacity:1"
       d="m 121.42857,882.21933 32.85714,5"
       id="path3216"
       inkscape:connector-curvature="0" />
    <path
       transform="matrix(1.4094247,0,0,1.6346083,-276.45233,-641.98836)"
       sodipodi:type="arc"
       style="fill:#ffffff;stroke:#000000"
       id="path3115-9-6-9-9-3"
       sodipodi:cx="309.46429"
       sodipodi:cy="937.00507"
       sodipodi:rx="5.5357141"
       sodipodi:ry="3.5714285"
       d="m 315.00001,937.00507 c 0,1.97244 -2.47843,3.57142 -5.53572,3.57142 -3.05729,0 -5.53571,-1.59898 -5.53571,-3.57142 0,-1.97245 2.47842,-3.57143 5.53571,-3.57143 3.05729,0 5.53572,1.59898 5.53572,3.57143 z" />
    <path
       style="fill:none;stroke:#000000;stroke-width:1px;stroke-linecap:butt;stroke-linejoin:miter;stroke-opacity:1"
       d="m 183.92857,903.43361 -17.14286,12.85714 29.64286,-0.35714 -30.17857,0.35714 15.53571,12.5"
       id="path3287"
       inkscape:connector-curvature="0" />
    <path
       style="fill:none;stroke:#000000;stroke-width:1px;stroke-linecap:butt;stroke-linejoin:miter;stroke-opacity:1"
       d="m 181.01786,843.25504 -17.14286,12.85714 29.64286,-0.35714 -30.17857,0.35714 15.53571,12.5"
       id="path3287-8"
       inkscape:connector-curvature="0" />
    <path
       sodipodi:type="arc"
       style="fill:#000000;stroke:#000000"
       id="path3309"
       sodipodi:cx="106.07143"
       sodipodi:cy="818.07648"
       sodipodi:rx="3.9285715"
       sodipodi:ry="5.7142859"
       d="m 110,818.07648 c 0,3.15591 -1.75888,5.71428 -3.92857,5.71428 -2.16969,0 -3.92858,-2.55837 -3.92858,-5.71428 0,-3.15592 1.75889,-5.71429 3.92858,-5.71429 2.16969,0 3.92857,2.55837 3.92857,5.71429 z" />
    <path
       style="fill:none;stroke:#000000;stroke-width:1px;stroke-linecap:butt;stroke-linejoin:miter;stroke-opacity:1"
       d="m 95.571429,840.79075 c 25.000001,-1.42857 17.142861,-16.42857 17.142861,-16.42857"
       id="path3311"
       inkscape:connector-curvature="0" />
    <path
       sodipodi:type="arc"
       style="fill:#000000;stroke:#000000"
       id="path3315"
       sodipodi:cx="316.07144"
       sodipodi:cy="856.29077"
       sodipodi:rx="2.5"
       sodipodi:ry="2.5"
       d="m 318.57144,856.29077 c 0,1.38071 -1.11929,2.5 -2.5,2.5 -1.38071,0 -2.5,-1.11929 -2.5,-2.5 0,-1.38071 1.11929,-2.5 2.5,-2.5 1.38071,0 2.5,1.11929 2.5,2.5 z" />
    <path
       transform="translate(13.642844,-0.3571604)"
       sodipodi:type="arc"
       style="fill:#000000;stroke:#000000"
       id="path3315-1"
       sodipodi:cx="316.07144"
       sodipodi:cy="856.29077"
       sodipodi:rx="2.5"
       sodipodi:ry="2.5"
       d="m 318.57144,856.29077 c 0,1.38071 -1.11929,2.5 -2.5,2.5 -1.38071,0 -2.5,-1.11929 -2.5,-2.5 0,-1.38071 1.11929,-2.5 2.5,-2.5 1.38071,0 2.5,1.11929 2.5,2.5 z" />
    <path
       transform="translate(77.071416,6.928554)"
       sodipodi:type="arc"
       style="fill:#000000;stroke:#000000"
       id="path3315-5"
       sodipodi:cx="316.07144"
       sodipodi:cy="856.29077"
       sodipodi:rx="2.5"
       sodipodi:ry="2.5"
       d="m 318.57144,856.29077 c 0,1.38071 -1.11929,2.5 -2.5,2.5 -1.38071,0 -2.5,-1.11929 -2.5,-2.5 0,-1.38071 1.11929,-2.5 2.5,-2.5 1.38071,0 2.5,1.11929 2.5,2.5 z" />
    <path
       transform="translate(65.928559,6.928554)"
       sodipodi:type="arc"
       style="fill:#000000;stroke:#000000"
       id="path3315-8"
       sodipodi:cx="316.07144"
       sodipodi:cy="856.29077"
       sodipodi:rx="2.5"
       sodipodi:ry="2.5"
       d="m 318.57144,856.29077 c 0,1.38071 -1.11929,2.5 -2.5,2.5 -1.38071,0 -2.5,-1.11929 -2.5,-2.5 0,-1.38071 1.11929,-2.5 2.5,-2.5 1.38071,0 2.5,1.11929 2.5,2.5 z" />
    <path
       style="fill:none;stroke:#000000;stroke-width:1px;stroke-linecap:butt;stroke-linejoin:miter;stroke-opacity:1"
       d="m 318.30357,863.70147 c 0,0.77381 0,1.54762 0,2.32143 0,0.0574 -0.0151,0.56457 0,0.625 0.0611,0.24424 0.12555,0.14368 0.26786,0.35714 0.0165,0.0248 -0.0133,0.0627 0,0.0893 0.0188,0.0376 0.0595,0.0595 0.0893,0.0893 0.0595,0.0595 0.11123,0.12806 0.17858,0.17857 0.0532,0.0399 0.13151,0.0422 0.17857,0.0893 0.0471,0.0471 0.0422,0.13151 0.0893,0.17857 0.0616,0.0616 0.39994,0.16695 0.44643,0.17857 0.0289,0.007 0.0617,-0.0111 0.0893,0 0.12358,0.0494 0.22916,0.14201 0.35714,0.17857 0.0858,0.0245 0.17926,-0.0111 0.26786,0 0.15058,0.0188 0.2962,0.0678 0.44643,0.0893 0.0589,0.008 0.11904,0 0.17857,0 0.17857,0 0.35714,0 0.53571,0 0.44643,0 0.89286,0 1.33929,0 0.35714,0 0.71428,0 1.07143,0 0.14881,0 0.30051,0.0292 0.44642,0 0.0653,-0.0131 0.11401,-0.0731 0.17858,-0.0893 0.0577,-0.0144 0.12082,0.0144 0.17857,0 0.0646,-0.0161 0.11905,-0.0595 0.17857,-0.0893 0.0595,-0.0298 0.11905,-0.0595 0.17857,-0.0893 0.0595,-0.0298 0.11905,-0.0595 0.17857,-0.0893 0.0595,-0.0298 0.13152,-0.0422 0.17857,-0.0893 0.0759,-0.0759 0.11419,-0.18201 0.17857,-0.26786 0.0253,-0.0337 0.0705,-0.0516 0.0893,-0.0893 0.0421,-0.0842 0.0472,-0.18368 0.0893,-0.26786 0.0376,-0.0753 0.14092,-0.10328 0.17857,-0.17857 0.0133,-0.0266 -0.0133,-0.0627 0,-0.0893 0.0188,-0.0376 0.0705,-0.0516 0.0893,-0.0893 0.0133,-0.0266 0,-0.0595 0,-0.0893 0,-0.0595 0,-0.11905 0,-0.17857 0,-0.20833 0,-0.41667 0,-0.625 0,-0.65476 0,-1.30952 0,-1.96429"
       id="path3368"
       inkscape:connector-curvature="0" />
    <path
       style="fill:none;stroke:#000000;stroke-width:1px;stroke-linecap:butt;stroke-linejoin:miter;stroke-opacity:1"
       d="m 383.55457,869.35087 c 0,0.77381 0,1.54762 0,2.32143 0,0.0574 -0.0151,0.56457 0,0.625 0.0611,0.24424 0.12555,0.14368 0.26786,0.35714 0.0165,0.0248 -0.0133,0.0627 0,0.0893 0.0188,0.0376 0.0595,0.0595 0.0893,0.0893 0.0595,0.0595 0.11123,0.12806 0.17858,0.17857 0.0532,0.0399 0.13151,0.0422 0.17857,0.0893 0.0471,0.0471 0.0422,0.13151 0.0893,0.17857 0.0616,0.0616 0.39994,0.16695 0.44643,0.17857 0.0289,0.007 0.0617,-0.0111 0.0893,0 0.12358,0.0494 0.22916,0.14201 0.35714,0.17857 0.0858,0.0245 0.17926,-0.0111 0.26786,0 0.15058,0.0188 0.2962,0.0678 0.44643,0.0893 0.0589,0.008 0.11904,0 0.17857,0 0.17857,0 0.35714,0 0.53571,0 0.44643,0 0.89286,0 1.33929,0 0.35714,0 0.71428,0 1.07143,0 0.14881,0 0.30051,0.0292 0.44642,0 0.0653,-0.0131 0.11401,-0.0731 0.17858,-0.0893 0.0577,-0.0144 0.12082,0.0144 0.17857,0 0.0646,-0.0161 0.11905,-0.0595 0.17857,-0.0893 0.0595,-0.0298 0.11905,-0.0595 0.17857,-0.0893 0.0595,-0.0298 0.11905,-0.0595 0.17857,-0.0893 0.0595,-0.0298 0.13152,-0.0422 0.17857,-0.0893 0.0759,-0.0759 0.11419,-0.18201 0.17857,-0.26786 0.0253,-0.0337 0.0705,-0.0516 0.0893,-0.0893 0.0421,-0.0842 0.0472,-0.18368 0.0893,-0.26786 0.0376,-0.0753 0.14092,-0.10328 0.17857,-0.17857 0.0133,-0.0266 -0.0133,-0.0627 0,-0.0893 0.0188,-0.0376 0.0705,-0.0516 0.0893,-0.0893 0.0133,-0.0266 0,-0.0595 0,-0.0893 0,-0.0595 0,-0.11905 0,-0.17857 0,-0.20833 0,-0.41667 0,-0.625 0,-0.65476 0,-1.30952 0,-1.96429"
       id="path3368-8"
       inkscape:connector-curvature="0" />
    <path
       style="fill:none;stroke:#000000;stroke-width:1px;stroke-linecap:butt;stroke-linejoin:miter;stroke-opacity:1"
       d="m 376.78571,909.86218 c 0,1.30953 0,2.61905 0,3.92858 0,0.49004 -0.18749,1.15625 0.35714,1.42857 0.1087,0.0543 0.91059,0 1.07143,0 0.71429,0 1.42857,0 2.14286,0 0.16839,0 1.76953,0.0162 1.78571,0 0.16836,-0.16836 -0.10647,-0.50133 0,-0.71429 0.0753,-0.15058 0.28186,-0.20656 0.35715,-0.35714 0.047,-0.0939 0,-1.24182 0,-1.42857 0,-0.95238 0,-1.90477 0,-2.85715"
       id="path4211"
       inkscape:connector-curvature="0" />
    <rect
       style="fill:#ffffff;stroke:#000000;stroke-width:0.68727028;stroke-miterlimit:4;stroke-dasharray:none"
       id="rect4213"
       width="66.227013"
       height="66.227043"
       x="245.45793"
       y="697.82013" />
    <path
       style="fill:none;stroke:#000000;stroke-width:1.24934089px;stroke-linecap:butt;stroke-linejoin:miter;stroke-opacity:1"
       d="m 345.91838,718.37971 27.0232,12.73071 -46.72762,-0.35362 47.57209,0.35362 -24.48977,12.37709"
       id="path3287-8-8"
       inkscape:connector-curvature="0" />
    <rect
       style="fill:#ffffff;stroke:#000000;stroke-width:1.2229389;stroke-miterlimit:4;stroke-dasharray:none"
       id="rect4213-7"
       width="211.40562"
       height="65.691376"
       x="385.72574"
       y="698.08795" />
    <text
       xml:space="preserve"
       style="font-size:40px;font-style:normal;font-weight:normal;line-height:125%;letter-spacing:0px;word-spacing:0px;fill:#000000;fill-opacity:1;stroke:none;font-family:Sans"
       x="261.14285"
       y="743.21936"
       id="text4297"
       sodipodi:linespacing="125%"><tspan
         sodipodi:role="line"
         id="tspan4299"
         x="261.14285"
         y="743.21936">-1</tspan></text>
    <path
       style="fill:none;stroke:#000000;stroke-width:0.91369992px;stroke-linecap:butt;stroke-linejoin:miter;stroke-opacity:1"
       d="m 604.24256,735.26248 54.37202,0 -2.86168,-272.68092"
       id="path4303"
       inkscape:connector-curvature="0" />
    <path
       style="fill:none;stroke:#000000;stroke-width:1px;stroke-linecap:butt;stroke-linejoin:miter;stroke-opacity:1"
       d="M 637.40626,482.63615 655.589,462.4331 676.80221,481.12092"
       id="path4305"
       inkscape:connector-curvature="0" />
    <path
       style="fill:#000000;stroke:#000000;stroke-width:1.20000005;stroke-miterlimit:4;stroke-dasharray:none"
       id="path4313"
       d="m 394.66207,720.91565 c 0.0455,-1.34471 0.73547,-2.29581 1.77446,-3.07495 3.8233,-2.31459 7.61929,-4.7074 11.74482,-6.44156 2.50303,-0.9746 5.17897,-1.44157 7.83302,-1.78847 2.03164,-0.13381 4.13908,-0.5635 6.16041,-0.18624 1.89859,0.55444 2.29784,1.71443 2.6456,3.51159 0.26861,2.05161 0.19596,4.1276 0.17295,6.19098 0.0397,2.26741 -0.017,4.53467 -0.46733,6.76145 -0.30901,1.74547 -1.04096,2.96119 -2.2832,4.19106 -1.0686,1.01839 -2.22971,1.92373 -3.47061,2.72042 -3.34541,2.25763 -6.94663,4.00042 -10.50153,5.86022 -1.36165,0.66394 -2.78735,1.18137 -4.26742,1.50256 -1.03644,0.18932 -2.09187,0.23977 -3.14342,0.24864 -1.15965,-0.20694 -1.61265,-1.11433 -1.87199,-2.16061 -0.26081,-1.289 -0.33196,-2.60914 -0.10151,-3.90267 0.55812,-1.64258 1.62181,-2.85869 3.00584,-3.85433 2.86058,-0.4982 5.57083,-3.71727 8.61183,-4.77277 0.921,-0.31967 1.91216,-0.45185 2.86471,-0.64056 1.89607,-0.38461 3.83118,-0.52749 5.75997,-0.63164 1.68219,-0.003 2.4418,0.57099 3.46194,1.82589 0.9657,1.40211 1.6222,2.99442 2.32106,4.54086 0.72093,1.74576 1.55239,3.42666 2.49667,5.06064 0.95403,1.76241 2.49872,2.89283 4.22116,3.82588 2.44229,1.21242 5.14643,1.57797 7.82933,1.81035 2.64591,0.20451 5.29828,0.21836 7.92336,-0.19028 0.84167,-0.22319 1.05212,-0.2379 1.82488,-0.59445 0.25226,-0.1164 0.9753,-0.53248 0.73438,-0.39414 -10.04307,5.76723 -6.63278,3.99362 -4.61265,2.49945 1.03289,-0.85321 1.46656,-2.07675 1.84422,-3.31609 0.65242,-2.075 0.85825,-4.24249 1.00633,-6.40103 0.10673,-1.95298 0.1155,-3.90874 0.10174,-5.86395 -0.003,-1.64646 -0.007,-3.2929 -0.0243,-4.93928 -0.1302,-1.70695 -1.32112,-2.8905 -2.62129,-3.86168 -1.61989,-1.17867 -3.42062,-2.05903 -5.20381,-2.95514 -1.77574,-0.79655 -3.49652,-1.71174 -5.25997,-2.53492 -1.11274,-0.513 -2.29326,-0.76464 -3.50765,-0.8496 -2.17637,0.70622 -7.45371,4.01096 5.42884,-3.14429 0.10405,-0.0578 -0.20367,0.12701 -0.28832,0.21068 -0.23714,0.2344 -0.26645,0.39928 -0.39652,0.70837 -0.28925,1.19126 -0.26725,2.43088 -0.27064,3.64926 0,0.96196 0.0263,1.9234 0.0297,2.88534 -0.11795,1.11783 0.4441,1.8622 1.09597,2.69565 1.13548,1.32653 2.48636,2.4845 3.89463,3.5145 1.66919,1.13327 3.41512,2.12929 5.30499,2.83826 2.16371,0.75968 4.45319,0.89123 6.72263,0.99071 2.66499,0.15273 5.31706,-0.0471 7.94143,-0.5062 2.50496,-0.40103 4.99488,-0.90383 7.50879,-1.24798 1.95566,-0.26621 3.93434,-0.25024 5.90386,-0.26811 2.00821,-0.0417 4.0057,-0.0183 6.00533,0.1666 1.70068,0.1633 2.92275,1.12808 3.91494,2.45201 0.8491,1.31877 1.2281,2.8399 1.49775,4.36544 0.16341,1.17113 0.20998,2.35126 0.22189,3.53201 0.0178,0.76105 0.005,1.52231 0.0152,2.28344 0.0865,0.82588 -0.16051,1.45265 -0.64178,2.11295 -2.4822,2.42753 -5.65704,4.61907 -9.1473,4.99327 -1.93683,0.0813 -3.87995,0.0974 -5.81455,-0.028 -2.19184,-0.25854 -4.39549,-0.82423 -6.30683,-1.94904 -1.51467,-0.92741 -1.97654,-2.41559 -2.2601,-4.07029 -0.20142,-2.08491 -0.11298,-4.18765 -0.10603,-6.27982 6.5e-4,-1.80562 -0.0172,-3.61108 -0.0367,-5.41658 0.003,-1.05784 -0.0938,-2.11833 0.0657,-3.16659 0.4181,-1.56757 1.58362,-2.46829 2.87638,-3.32206 2.96321,-1.48344 5.98087,-3.94083 9.34109,-4.94137 1.47409,-0.43893 3.01185,-0.7415 4.50794,-1.09605 3.12982,-0.8535 6.33459,-1.36517 9.51972,-1.96123 3.14719,-0.68745 6.35098,-0.9867 9.5618,-1.14961 2.34085,-0.0467 4.69497,-0.2909 7.03311,-0.0969 1.92202,0.39732 3.51191,1.53799 4.93851,2.8329 1.30764,1.16131 1.99181,2.66623 2.37282,4.33761 0.2838,1.85719 0.2801,3.74661 0.31457,5.62172 0.018,1.12922 0.0162,2.25865 0.0385,3.38779 0.0138,0.7756 0.0677,1.51306 -0.25569,2.23251 -2.25934,2.76731 -5.78382,4.3888 -9.20297,5.36035 -1.69004,0.33102 -3.35245,0.75659 -5.0644,0.96714 -1.23913,0.0789 -2.50751,0.25567 -3.75185,0.18283 -0.81254,-0.0476 -1.21967,-0.1931 -1.99713,-0.39499 -1.68556,-0.69001 -2.80395,-1.4836 -3.54189,-3.16823 -0.41936,-1.23397 -0.50035,-2.54539 -0.53436,-3.83845 0.0162,-0.88813 -0.0512,-1.7805 0.0251,-2.6662 0.10857,-0.51359 0.40434,-1.05726 0.8756,-1.33324 6.55687,-3.83991 4.26033,-3.13169 7.05552,-3.96028 0.55583,-0.0959 1.12102,-0.11842 1.6841,-0.10518 0.68578,-0.0848 1.10969,0.23638 1.63035,0.64626 0.95113,0.81101 1.62299,1.90728 2.30742,2.94298 0.87715,1.11311 1.26212,2.36878 1.47764,3.7442 0.18983,1.34498 0.16793,2.70366 0.16962,4.0579 -0.0118,1.785 -0.0393,3.56985 -0.0526,5.35483 0.003,1.3723 0.031,2.74475 0.0738,4.11638 -0.0432,1.06034 0.33971,1.24061 1.24763,1.71825 2.01689,0.96166 4.19755,1.32706 6.39735,1.56441 2.98164,0.22194 5.97263,0.3655 8.93826,-0.061 2.94425,-0.49067 5.68862,-1.67443 8.40118,-2.8693 2.65002,-1.27735 5.16323,-2.78738 7.82632,-4.03958 3.11185,-1.35267 6.23277,-2.68951 9.29314,-4.15715 3.63539,-1.96339 -2.8195,1.68379 -4.27622,2.43939 -0.31096,0.1613 0.56656,-0.41547 0.81974,-0.65756 0.90475,-0.86512 1.37322,-1.86352 1.85295,-2.99531 0.64934,-1.92557 0.97137,-3.96175 0.81493,-5.98984 -0.46347,-2.04734 -2.22762,-3.11673 -3.89706,-4.14713 -2.31881,-1.34157 -4.83658,-2.27282 -7.4058,-3.00168 -1.92621,-0.5064 -3.9068,-0.74417 -5.89256,-0.83094 -0.47321,0.0504 -0.98792,-0.0928 -1.45968,-0.002 -0.21707,0.0416 -0.76581,0.4416 -0.57299,0.33359 2.04293,-1.14439 4.06963,-2.31753 6.10444,-3.47629 -1.09621,0.79356 -1.34347,2.11378 -1.59525,3.36396 -0.37663,2.54799 -0.62818,5.10728 -0.78042,7.67768 -0.0779,2.09434 -0.25261,4.19478 0.0504,6.27633 0.31163,1.67532 1.31487,2.91053 2.5705,3.99308 1.48242,1.18919 3.16377,2.10849 4.84249,2.9881 2.02093,1.11608 4.34975,1.31725 6.58784,1.67534 2.30505,0.26685 4.58412,0.69979 6.89337,0.93009 2.40144,0.14529 4.78735,0.46931 7.14761,0.92962 2.31934,0.48135 4.68363,0.64383 7.04493,0.74194 2.06937,0.0605 4.13989,0.0628 6.20996,0.0584 1.54159,-0.0182 3.0829,-0.0314 4.62457,-0.0354 1.01895,-0.004 2.038,-0.009 3.05673,-0.0315 0.0801,-0.002 0.16018,-0.004 0.24027,-0.007 0,0 -6.07755,4.41569 -6.07755,4.41569 l 0,0 c -0.074,-0.002 -0.14793,-0.004 -0.22189,-0.007 -0.99093,-0.0234 -1.98225,-0.026 -2.97342,-0.0281 -1.51641,-1.4e-4 -3.03255,-0.005 -4.54892,-0.0208 -2.0716,-0.005 -4.1444,0.008 -6.21393,-0.10048 -2.37418,-0.13959 -4.74817,-0.35975 -7.08192,-0.83429 -2.35871,-0.41473 -4.73055,-0.74676 -7.12446,-0.87427 -2.30324,-0.24451 -4.57388,-0.69767 -6.87066,-0.99485 -2.31378,-0.36524 -4.7422,-0.5788 -6.77892,-1.83953 -1.71371,-0.94605 -3.52353,-1.77804 -4.99441,-3.09512 -1.34163,-1.23668 -2.46279,-2.60031 -2.79679,-4.45135 -0.31568,-2.13771 -0.1872,-4.29233 -0.062,-6.44311 0.1851,-2.57989 0.44957,-5.15262 0.72747,-7.72394 0.14959,-1.33292 0.27078,-2.72993 1.18713,-3.78708 5.6801,-3.34317 4.80926,-4.26076 8.87851,-3.93682 1.9637,0.19012 3.91443,0.53866 5.81382,1.07598 2.62054,0.78198 5.17823,1.75417 7.54595,3.14132 1.89291,1.16438 3.75309,2.38559 4.30563,4.685 0.24288,2.13093 -0.10229,4.28939 -0.73605,6.33118 -0.33296,0.92345 -0.48573,1.48338 -0.98724,2.33384 -0.31017,0.52599 -0.93111,1.36886 -1.47393,1.70808 -5.51395,3.4457 -4.91205,3.11887 -8.13078,4.69523 -3.0774,1.40563 -6.19192,2.72797 -9.26539,4.1426 -2.64737,1.28854 -5.16505,2.81755 -7.85181,4.02682 -2.736,1.17507 -5.52029,2.27817 -8.49238,2.683 -3.02584,0.33517 -6.06888,0.19914 -9.10051,-0.0322 -2.29272,-0.26628 -4.56452,-0.71301 -6.66301,-1.71673 -0.98916,-0.53335 -1.8428,-1.11897 -1.74552,-2.35463 0.043,-1.39813 0.0735,-2.79698 0.08,-4.19576 -0.008,-1.77073 -0.0254,-3.54142 -0.0275,-5.31219 -3.9e-4,-1.32054 -0.004,-2.64486 -0.12528,-3.96073 -0.17216,-1.27328 -0.51774,-2.42965 -1.32525,-3.45967 -0.62918,-0.95963 -1.27657,-1.98148 -2.22015,-2.65856 -0.46888,-0.26809 -0.87758,-0.27748 -1.41035,-0.23603 -0.51343,0.0311 -1.0311,0.0725 -1.50208,0.30089 -2.3776,1.19071 -0.23989,0.12754 5.78745,-3.39798 0.53408,-0.31239 -1.57136,0.82427 -1.10398,0.79686 -0.26481,0.80805 -0.0534,1.72123 -0.13915,2.55762 0.002,1.20787 0.004,2.43619 0.36323,3.60166 0.6045,1.44915 1.64497,2.12167 3.11124,2.62493 1.86073,0.37673 3.73978,0.22702 5.61309,-0.0221 1.68815,-0.26875 3.36494,-0.64108 5.0146,-1.08539 0.23982,-0.0849 0.48287,-0.16122 0.71947,-0.25474 0.1899,-0.075 0.73405,-0.35566 0.55899,-0.25055 -1.92806,1.1578 -3.88095,2.27375 -5.82143,3.41062 0.2656,-0.16675 0.56708,-0.27967 0.81125,-0.47645 0.10399,-0.0838 0.171,-0.2052 0.2565,-0.30779 0.71801,-0.57675 0.38792,-0.96342 0.45132,-1.81391 0.0371,-1.14509 0.0559,-2.29067 0.0738,-3.43621 0.0191,-1.82925 0.038,-3.66971 -0.24322,-5.48274 -0.32596,-1.54326 -0.92906,-2.8869 -2.14024,-3.95033 -1.32158,-1.21075 -2.82594,-2.22044 -4.64902,-2.43164 -2.274,-0.10458 -4.55404,-0.0212 -6.82775,0.0553 -3.19539,0.19355 -6.37752,0.54338 -9.51032,1.22386 -3.17855,0.57598 -6.36067,1.15415 -9.48476,1.98482 -1.51551,0.37659 -3.06022,0.71079 -4.53466,1.23372 -2.4439,0.86675 -7.07058,3.78095 3.15112,-2.15567 -1.20505,0.699 -2.40371,1.40979 -2.98252,2.74073 -0.34111,0.95728 -0.0723,2.03276 -0.18318,3.03422 -0.0304,1.82631 -0.0675,3.65249 -0.0852,5.479 -0.008,2.04114 -0.0256,4.08788 0.15659,6.12285 0.20504,1.45794 0.55132,2.72482 1.90439,3.51675 1.84992,1.03139 3.92966,1.57465 6.03967,1.71581 1.94921,0.0697 3.91842,0.0661 5.8531,-0.20474 0.43982,-0.10942 0.59884,-0.12787 1.00532,-0.30626 0.15224,-0.0668 0.58722,-0.31163 0.44413,-0.22696 -10.72278,6.34483 -7.06573,4.43979 -5.10188,2.88325 0.53635,-0.44347 0.91996,-0.86814 0.83939,-1.59395 0.0179,-0.76747 0.0181,-1.53518 0.0373,-2.30264 0.003,-1.15234 0.01,-2.30861 -0.12293,-3.45512 -0.19956,-1.42378 -0.52156,-2.82385 -1.31256,-4.0497 -0.91393,-1.16384 -2.01934,-1.87831 -3.53032,-1.97718 -1.97936,-0.17231 -3.96279,-0.13283 -5.9481,-0.11749 -1.95024,0.0244 -3.90341,0.0701 -5.8389,0.33515 -2.48445,0.34857 -4.95253,0.80105 -7.4276,1.2092 -2.66906,0.40667 -5.36477,0.55764 -8.06387,0.41099 -2.32974,-0.10628 -4.6683,-0.32611 -6.86304,-1.17673 -1.94464,-0.76166 -3.77535,-1.7517 -5.47527,-2.97038 -1.42881,-1.10895 -2.85898,-2.25999 -4.04111,-3.63449 -0.7638,-0.91061 -1.48885,-1.83849 -1.40632,-3.09763 -0.005,-0.9704 0.005,-1.94061 0.005,-2.911 0.009,-1.27302 0.0247,-2.54842 0.15936,-3.81562 0.57169,-3.35904 4.72897,-5.45067 8.04545,-5.28142 1.24241,0.18329 2.4336,0.55222 3.55789,1.12048 1.73633,0.86582 3.46447,1.74633 5.21792,2.57652 1.82462,0.91668 3.67863,1.80307 5.30429,3.05721 1.44928,1.15548 2.76463,2.48373 3.0086,4.4106 -0.0126,1.65306 -0.009,3.30613 -0.01,4.95922 -0.0202,1.97796 -0.015,3.95831 -0.13302,5.9334 -0.14384,2.17828 -0.33568,4.3702 -0.86539,6.49348 -0.32345,1.34571 -0.71029,2.64051 -1.61281,3.72548 -3.05344,2.59742 -6.67665,4.84931 -10.64056,5.58902 -2.65408,0.27317 -5.32337,0.24464 -7.98222,0.0292 -2.75811,-0.30973 -5.51613,-0.7817 -8.0279,-2.02802 -1.82588,-1.01617 -3.47939,-2.24382 -4.48404,-4.12959 -0.95572,-1.64958 -1.78157,-3.35998 -2.52306,-5.11676 -0.71792,-1.46537 -1.30559,-3.02481 -2.29001,-4.33835 -0.97729,-1.11933 -1.55829,-1.31374 -3.06168,-1.27441 -1.88993,0.0932 -3.77818,0.25871 -5.62837,0.67589 -0.58765,0.13098 -1.3736,0.29116 -1.95563,0.47612 -2.60139,0.82668 -7.46426,4.26869 3.13431,-2.13799 -1.41115,0.82481 -2.4999,1.83968 -3.21689,3.33766 -0.0692,0.21653 -0.17441,0.4247 -0.20769,0.64958 -0.13525,0.91411 0.13351,2.00076 0.19517,2.9177 0.18647,0.78739 0.4624,1.34036 1.36966,1.28889 1.00655,-0.0327 2.01633,-0.0928 2.99709,-0.34081 1.42517,-0.38314 2.80288,-0.92396 4.11159,-1.60808 2.72938,-1.4197 9.46098,-5.0686 -2.11582,1.41327 1.25207,-0.7862 2.49418,-1.58143 3.56764,-2.61151 1.30261,-1.14741 2.10608,-2.06017 2.49863,-3.81296 0.57176,-2.17174 0.63834,-4.40682 0.6008,-6.6443 -0.014,-2.00684 0.0106,-4.02278 -0.20861,-6.02015 -0.26881,-1.52833 -0.51814,-2.389 -2.17566,-2.72602 -1.96821,-0.18589 -3.95651,0.0738 -5.91599,0.25955 -2.64483,0.38076 -5.29576,0.90221 -7.75683,1.97831 -0.34554,0.15418 -0.69443,0.30109 -1.03664,0.46253 -0.35937,0.16954 -0.71439,0.3483 -1.06767,0.5302 -4.47092,2.30202 7.5908,-4.46998 3.6414,-2.13952 -0.23056,0.13605 -0.46505,0.26533 -0.69758,0.39799 -0.96481,0.53357 -1.91311,1.15264 -1.98835,2.3598 0,0 -6.67606,3.40162 -6.67606,3.40162 z"
       inkscape:connector-curvature="0" />
    <path
       style="fill:#000000;stroke:#000000;stroke-width:1.20000005000000010;stroke-miterlimit:4;stroke-dasharray:none"
       id="path4315"
       d="m 380.16166,334.57094 c 0.78416,-0.58171 1.5542,-1.18296 2.35248,-1.74512 2.65532,-1.86992 7.20866,-4.88271 9.75743,-6.55027 4.40417,-2.88149 6.85649,-4.51355 11.43683,-7.0652 3.4964,-1.9478 7.04349,-3.80317 10.56524,-5.70475 7.17677,-3.16027 14.69388,-5.63573 22.49218,-6.65582 0.99268,-0.12985 1.99367,-0.18558 2.9905,-0.27836 3.12931,0.04 7.12209,0.0608 9.68643,2.19984 0.3811,0.31789 0.67989,0.72314 1.01983,1.08471 1.85274,2.31234 2.25904,5.22904 2.6493,8.07077 0.20502,2.01052 0.48945,4.00698 0.97012,5.97081 0.0922,0.33196 0.35681,0.6409 0.75229,0.52628 0.12388,-0.0359 0.44839,-0.2551 0.33497,-0.19369 -1.88295,1.01956 -3.76246,2.04546 -5.64369,3.06819 5.64307,-4.24275 11.31624,-8.43502 17.23016,-12.29375 1.01984,-0.60195 2.02684,-1.2262 3.05951,-1.80585 2.90639,-1.63138 5.80492,-3.27893 8.75668,-4.82671 0.97263,-0.51 1.9968,-0.91586 3.00874,-1.34257 2.42447,-1.02233 4.87947,-1.86473 7.40294,-2.59763 3.25946,-0.67755 6.6572,-1.38625 9.99927,-0.86502 0.63438,0.0989 1.25082,0.29044 1.87624,0.43566 2.36177,0.94143 4.69912,2.28666 6.27641,4.34252 0.97833,1.27518 1.37172,2.29501 2.0576,3.73296 1.60323,4.48249 1.80303,9.29553 2.01205,14.0074 0.0753,1.52362 0.1247,3.0483 0.18417,4.57257 0.0203,0.52159 -0.0276,1.15648 0.1172,1.66873 -2.22661,1.01385 -4.45321,2.0277 -6.67982,3.04155 0.1085,-0.0816 0.24362,-0.13643 0.32551,-0.24469 0.16972,-0.22436 0.2769,-0.4898 0.41536,-0.7347 0.19618,-0.32836 0.35767,-0.68013 0.58855,-0.98509 1.34745,-1.77982 2.00811,-2.15643 3.86081,-3.79176 4.24956,-3.29983 8.45207,-6.75567 13.09682,-9.50356 2.58782,-1.53099 5.20738,-3.00769 7.81106,-4.51153 4.38134,-2.03504 9.21313,-2.49985 13.95103,-3.05097 3.83574,-0.1787 7.89519,-1.03294 11.66738,0.10723 0.58705,0.17744 1.1372,0.45959 1.70581,0.68939 1.24214,0.7679 1.87881,1.00922 2.79924,2.19779 1.78384,2.3035 2.55841,5.36046 3.23064,8.12747 0.6278,3.05188 0.98028,6.14918 1.16512,9.25674 0.0899,2.27334 -0.0185,-0.66445 0.0375,1.49992 0.004,0.16025 0.008,0.32086 0.0243,0.48029 0.006,0.0579 0.0449,0.22715 0.0436,0.169 -0.005,-0.22819 0.15385,-0.77418 -0.0552,-0.68251 -1.95428,0.85707 -3.71524,2.1005 -5.57286,3.15075 3.59522,-2.13537 7.14794,-4.34057 10.70872,-6.53245 0.8151,-0.48499 1.62138,-0.98512 2.4453,-1.45497 2.86235,-1.63229 5.72237,-3.26941 8.61297,-4.85113 3.86681,-2.1159 7.96778,-3.84388 11.98268,-5.65235 6.85707,-2.84369 14.06635,-4.73846 21.35132,-6.09638 3.28715,-0.3743 7.71893,-1.825 10.76447,0.20546 0.45076,0.30052 0.79233,0.73906 1.1885,1.10859 0.29376,0.51914 0.64322,1.01049 0.88128,1.55742 1.33824,3.07451 1.42472,6.68062 1.5676,9.97221 0.26813,4.36726 -1.3264,7.46326 -3.80802,10.88795 -1.03461,1.26221 -2.05095,2.57821 -3.3772,3.55064 -1.71282,-0.0638 -4.33508,3.66203 -6.97994,3.79404 -0.14176,0.007 -0.29044,-0.075 -0.42482,-0.0293 -0.10953,0.0373 -0.14821,0.17779 -0.22569,0.26372 0.028,-0.1301 -0.51083,0.27485 -0.38485,0.20299 2.06943,-1.1803 4.12795,-2.37963 6.1921,-3.56915 0.24446,-0.14088 -0.47164,0.31043 -0.71602,0.45146 -2.30557,1.33056 -4.62197,2.64225 -6.93296,3.96337 -1.56505,0.72866 -3.03282,1.65122 -4.61423,2.34196 -1.30189,0.43847 -2.57531,0.918 -3.92086,1.20479 -0.20639,-0.10722 -0.45533,0.19962 -0.66732,0.12108 -0.47528,-0.17607 -0.70913,-0.87844 -0.62338,-1.32258 0.056,-0.28987 0.22402,-0.5463 0.33602,-0.81945 1.82928,-2.77926 4.53736,-4.81134 7.15894,-6.7932 5.03002,-3.6192 10.31469,-7.01812 16.13751,-9.20176 3.42136,-1.31496 6.76164,-2.12842 10.39594,-2.53303 1.96596,-0.15711 3.97513,-0.44092 5.94195,-0.10492 1.09871,0.1877 1.35057,0.36432 2.36325,0.79563 3.00771,1.72673 3.87592,3.54212 5.04842,6.69606 0.89973,3.36199 1.15483,6.85509 1.39063,10.3155 -0.076,1.21021 0.46523,2.99267 -0.0906,4.13701 -0.15014,0.30909 -0.39387,0.5632 -0.5908,0.84481 -4.18026,3.21709 -8.98104,5.66125 -13.97715,7.33107 -1.25656,0.37325 -2.54547,0.66688 -3.8519,0.79548 -0.63683,-0.007 -0.76297,-1.20362 -0.60545,-1.67338 0.0692,-0.20623 0.20426,-0.38409 0.30639,-0.57613 4.87056,-4.773 8.48695,-4.75502 14.19474,-5.00667 3.41308,-0.10251 6.83032,-0.25999 10.23282,0.0849 2.94867,0.45644 5.2255,2.31297 7.22465,4.40982 2.14252,2.34903 3.3937,5.24789 4.57121,8.15558 1.49231,3.58057 1.81564,7.43367 2.09295,11.25719 -0.0673,2.12234 0.63162,4.92055 0.0427,6.97709 -0.11778,0.41131 -0.32306,0.79236 -0.48459,1.18854 -0.74709,1.3308 -1.84702,2.33423 -3.18166,3.06605 -2.60192,1.42672 -5.17577,2.91685 -7.86871,4.16329 -0.56538,0.26168 -3.96363,0.78554 -4.50852,0.87652 -3.5636,0.43439 -7.15245,0.94619 -10.74071,0.58396 -1.25893,-0.11873 -2.38392,-1.04445 -3.68113,-0.66728 -0.28547,0.083 -1.02977,0.59129 -0.75934,0.46779 6.43012,-2.93637 5.59087,-5.0273 6.18237,-1.27634 0.23843,0.64927 0.45488,1.30705 0.71531,1.94782 0.75223,1.85081 1.34637,2.93135 2.20307,4.78772 1.56444,3.38998 3.07405,6.80555 4.55347,10.23323 1.70577,4.29582 3.50991,8.57315 4.88365,12.99191 0.52294,1.6821 1.05324,3.77403 1.50337,5.48845 0.60022,2.41267 0.95045,4.87461 1.22051,7.34271 0.0893,0.81629 0.34913,3.27666 0.29568,4.14941 -0.0381,0.6223 -0.21351,1.22852 -0.32026,1.84277 -1.38493,1.84729 -1.30872,2.13373 -3.47211,3.31137 -2.89466,1.57572 -5.7808,3.19512 -8.82412,4.46008 -1.19493,0.49667 -2.52349,0.58375 -3.80136,0.7877 -2.94436,0.46992 -6.66981,0.73748 -9.62155,0.99378 -5.15687,0.45535 -10.32512,0.424 -15.47309,-0.11071 -3.05994,-0.31783 -5.97442,-0.74684 -8.9415,-1.56683 -1.3008,-0.35949 -2.55785,-0.86175 -3.83678,-1.29263 -3.74312,-1.63311 -7.47558,-3.45389 -10.63053,-6.0918 -1.30903,-1.09451 -1.69364,-1.61739 -2.78706,-2.85559 -1.47968,-1.71852 -2.23438,-3.84308 -3.2279,-5.83717 -0.12135,0.16648 -0.22356,-0.58268 -0.39373,-0.46965 -0.0992,0.0659 -0.18197,0.40087 -0.0745,0.34956 2.02038,-0.96435 3.86555,-2.28904 5.93368,-3.1462 0.37477,-0.15533 -0.49448,0.64424 -0.71639,0.98384 -0.33648,0.5149 -0.63826,1.05167 -0.95738,1.57751 -3.47501,5.80856 -7.11056,11.52092 -11.18999,16.92442 -2.37318,2.5843 -4.5871,5.53995 -7.5963,7.45517 -2.87596,1.83041 -5.83342,3.53613 -8.84131,5.14054 -1.10315,0.58842 -2.28494,1.02504 -3.46921,1.42589 -1.24568,0.42164 -2.53777,0.69123 -3.80665,1.03684 -1.39325,0.24013 -2.77435,0.56644 -4.17973,0.72038 -4.07326,0.44618 -9.18283,0.51866 -13.0574,-1.00863 -3.91823,-1.5445 -5.14467,-3.0798 -8.36321,-5.81783 -4.25658,-4.00532 -7.75593,-8.59297 -10.19791,-13.9249 -2.84433,-6.21044 -4.52575,-12.92883 -6.30741,-19.49283 -0.78485,-3.18424 -1.59678,-6.36182 -2.38164,-9.54607 -0.26528,-1.07625 -0.46984,-2.16867 -0.78462,-3.23151 -0.24509,-0.8275 -0.66018,-2.88725 -2.06714,-2.9551 -0.86666,-0.0418 -1.68022,0.43385 -2.52032,0.65077 -7.44677,2.89088 -14.21304,7.22649 -21.238,10.97063 -6.86634,3.6596 -7.00574,3.57185 -14.19751,6.7943 -11.91803,4.71286 -24.41613,7.97675 -37.15326,9.48177 -2.02087,0.23878 -4.05526,0.34434 -6.08289,0.51651 -5.27668,-0.0267 -10.72133,0.14647 -15.86274,-1.3113 -1.48333,-0.42058 -2.91732,-1.01758 -4.30942,-1.68034 -3.74097,-1.78105 -3.81621,-2.22188 -6.85105,-4.91212 -4.91846,-6.05688 -6.54154,-12.82149 -7.81836,-20.30821 -0.34234,-2.15203 -0.58549,-4.3225 -0.60873,-6.50269 -0.0488,-0.13926 0.0321,-0.29046 0.003,-0.43139 -0.013,-0.0639 -0.13162,-0.15358 -0.0727,-0.18163 2.24758,-1.07085 4.48795,-2.1754 6.82442,-3.0352 0.18455,-0.0679 0.0338,0.4753 -0.13623,0.57402 -2.36383,1.37207 -4.86448,2.49359 -7.29671,3.74039 -6.2049,0.34713 -12.38044,-0.53271 -18.45215,-1.72054 -1.19777,-0.4034 -2.44016,-0.69284 -3.5933,-1.21018 -3.46565,-1.55481 -6.67369,-4.0313 -9.12258,-6.92036 -2.10238,-2.48028 -2.45897,-3.46203 -3.99853,-6.27193 -1.40215,-2.79014 -2.29483,-5.76865 -2.92178,-8.81634 -0.28042,-1.3632 -0.64723,-3.2799 -0.5377,-4.70741 0.0555,-0.72327 0.29239,-1.42102 0.43858,-2.13154 0.7394,-1.68354 0.82523,-2.20943 2.02787,-3.63136 0.74418,-0.87988 2.10783,-2.0568 3.11699,-2.64521 7.47289,-4.35719 5.16559,-3.50555 9.67716,-4.8981 2.40401,-0.63351 4.88713,-0.94029 7.36949,-1.01347 0.17268,-0.002 0.35831,0.0608 0.51803,-0.005 0.1265,-0.052 0.38196,-0.38146 0.26201,-0.31575 -2.08448,1.14199 -4.04969,2.50256 -6.17946,3.55766 -0.13514,0.0669 -0.16159,-0.25883 -0.27202,-0.36155 -0.37985,-0.35334 -0.77949,-0.68611 -1.1922,-1.00046 -0.56122,-0.42747 -1.15145,-0.81544 -1.72717,-1.22316 -3.91815,-2.65677 -8.2437,-4.6186 -12.24542,-7.13349 -1.03151,-0.83653 -2.50716,-1.535 -3.15192,-2.77707 -0.35897,-0.69153 -0.35035,-1.1733 -0.46133,-1.95136 -0.19258,-2.39819 -0.1518,-4.80749 -0.13681,-7.21118 0.14991,-1.52554 -0.25856,-3.13877 0.15792,-4.63731 0.0864,-0.31075 0.23142,-0.60211 0.34713,-0.90316 0.26325,-0.35674 0.49387,-0.74004 0.78976,-1.07022 2.94687,-3.28827 8.77199,-5.92746 12.12623,-7.80186 3.51179,-1.32127 7.30717,-1.70965 11.01554,-2.12166 1.68231,-0.18764 3.37046,-0.31976 5.06243,-0.3712 0.45695,-10e-4 0.91392,0.002 1.37069,0.0149 1.03946,0.40495 1.95628,1.05718 2.81597,1.75666 0.86915,0.62011 1.70306,1.28335 2.49318,2.00146 0.65545,0.45329 1.15072,1.07536 1.80639,1.52681 0.27985,0.32137 0.57075,0.58653 0.94664,0.78485 0,0 -6.33306,4.06768 -6.33306,4.06768 l 0,0 c -0.33995,-0.25686 -0.63096,-0.55739 -0.93542,-0.85297 -0.63027,-0.50761 -1.16653,-1.11352 -1.81302,-1.60233 -0.78072,-0.69547 -1.5898,-1.35512 -2.42121,-1.98952 -0.75321,-0.5738 -1.64747,-1.26817 -2.63445,-1.28799 -0.44664,0.003 -0.89259,-0.0193 -1.33925,-0.0189 -1.57604,-0.018 -3.1512,0.0775 -4.72136,0.20593 -3.71408,0.3705 -7.50056,0.82587 -10.93693,2.37346 10.79648,-6.43699 1.20416,-1.10859 -0.63151,1.33854 -0.32813,0.6218 -0.51247,0.83702 -0.61297,1.53873 -0.1761,1.22947 0.065,2.52355 -0.0772,3.75734 -0.0357,2.36463 -0.1147,4.73785 0.10249,7.0962 0.0933,0.56917 0.12421,1.08892 0.37913,1.61053 0.56667,1.15949 1.84635,1.88336 2.77758,2.6886 3.86742,2.6952 8.12312,4.75189 12.14009,7.20726 0.38598,0.24664 2.89992,1.81934 3.35901,2.23014 0.29379,0.26288 1.00721,0.67503 0.71631,0.94111 -3.4247,3.13259 -4.26577,4.36301 -7.33613,4.29827 -2.35119,0.038 -4.69877,0.29258 -6.95967,0.97229 -3.2245,1.13744 -2.72011,1.10492 2.42627,-1.9917 0.56789,-0.3417 -1.13715,0.68576 -1.66597,1.08526 -1.66933,1.26114 -2.91551,2.79311 -3.71752,4.73437 -0.1806,0.6614 -0.45186,1.30451 -0.54179,1.9842 -0.18747,1.41704 0.0896,3.30236 0.32305,4.6697 0.51569,3.02091 1.34957,5.96988 2.64102,8.7567 1.48338,2.77122 1.79552,3.7074 3.86873,6.13455 2.41771,2.83044 5.53625,5.18135 8.96083,6.65757 1.13486,0.4892 2.34817,0.77134 3.52225,1.15701 1.25243,0.24277 2.49736,0.52805 3.75729,0.72831 5.014,0.79694 10.16481,1.0329 15.20001,0.30416 -1.83704,1.13626 -3.74758,2.1615 -5.51113,3.40879 -0.12905,0.0913 0.29559,0.24375 0.43943,0.17823 2.30856,-1.05153 4.54298,-2.26079 6.77585,-3.46473 0.099,-0.0534 -0.26362,-0.2662 -0.20231,0.27756 -0.29086,2.20628 -0.15253,4.44673 -0.005,6.65782 0.80008,7.34293 2.37778,14.27527 7.23598,20.10097 2.8655,2.54478 3.09001,3.09428 6.62197,4.79101 6.16744,2.9628 12.97777,3.07588 19.67893,3.00071 1.98323,-0.15389 3.97202,-0.2479 5.94969,-0.46166 12.61099,-1.36306 24.98397,-4.55882 36.72292,-9.34826 7.34713,-3.34474 7.28459,-3.16829 14.30456,-6.93861 7.38758,-3.96775 14.4836,-8.61213 22.3598,-11.58524 1.04405,-0.11552 2.10406,-0.56194 3.13217,-0.34655 1.46556,0.30704 1.71969,2.67617 1.90078,3.59906 0.21822,1.11205 0.34142,2.24077 0.53038,3.35817 0.75288,4.45195 0.91795,5.07625 1.8613,9.79604 1.19869,4.83448 1.90506,8.20857 3.62692,12.9355 2.85405,7.83505 6.80726,14.33041 12.94147,20.01158 3.35689,2.63315 4.48128,3.98028 8.45963,5.41614 4.0363,1.45678 8.7335,1.33715 12.91658,0.7844 1.41732,-0.18728 2.80638,-0.54745 4.20957,-0.82117 1.26823,-0.37872 2.56069,-0.68418 3.8047,-1.13616 1.16982,-0.42504 2.1807,-1.42596 3.42368,-1.49014 0.92422,-0.0477 -2.81615,2.25017 -2.37609,1.43604 0.55671,-1.02992 1.88951,-1.38804 2.76829,-2.16162 1.74408,-1.5353 3.35844,-3.43029 4.90705,-5.14997 4.02722,-5.24637 7.66954,-10.79194 10.77213,-16.63789 0.26495,-0.51318 0.52926,-1.02671 0.79486,-1.53956 0.18063,-0.34877 0.22322,-0.8184 0.54381,-1.04532 2.74235,-1.94103 5.99038,-6.50528 7.80635,-3.239 0.77626,2.02651 1.40641,4.1185 2.81747,5.82982 1.02617,1.24467 1.334,1.70693 2.57703,2.82066 2.96562,2.65713 6.51907,4.54661 10.13837,6.14437 1.24563,0.42673 2.47086,0.91847 3.7369,1.28018 7.82711,2.2362 16.08804,2.29328 24.13663,1.63206 3.71515,-0.36353 6.14292,-0.5067 9.79942,-1.23388 1.31903,-0.26232 3.01599,-1.99224 3.9115,-0.98889 0.79629,0.89218 -2.08222,1.26016 -2.85434,2.17334 -0.95857,1.13368 4.55717,-2.98911 3.51416,-2.73631 0.14531,-0.57135 0.37026,-1.12818 0.43592,-1.71405 0.0735,-0.65559 0.005,-1.31983 -0.022,-1.97896 -0.13139,-3.18606 -0.59103,-6.35681 -1.24588,-9.47438 -0.46044,-1.96136 -0.80903,-3.55624 -1.37597,-5.50231 -1.29161,-4.43361 -2.97702,-8.74638 -4.67903,-13.03392 -1.35044,-3.07262 -1.68881,-3.93429 -3.16284,-6.92788 -1.62022,-3.29047 -3.52475,-6.44259 -4.88769,-9.85654 -0.18633,-0.58834 -0.9666,-1.30163 -0.55901,-1.76502 1.88562,-2.14379 5.03781,-5.62708 8.41513,-4.9286 0.42562,0.088 0.83476,0.24242 1.25213,0.36363 0.42662,0.0814 0.85324,0.16275 1.27986,0.24412 3.46686,0.30395 6.95556,-0.0893 10.39064,-0.56541 0.77386,-0.1482 1.55462,-0.2641 2.32159,-0.44458 0.74302,-0.17485 2.74232,-1.16188 2.20429,-0.62043 -1.21006,1.21776 -2.91707,1.81238 -4.34124,2.77098 -0.42586,0.28664 0.91628,-0.46822 1.34332,-0.75311 0.39807,-0.26556 0.78326,-0.55703 1.12406,-0.89295 0.30213,-0.2978 0.52823,-0.66398 0.79234,-0.99597 0.18365,-0.34397 0.41146,-0.66779 0.55095,-1.03191 0.35143,-0.91734 0.27166,-1.29869 0.27957,-2.26197 0.0127,-1.54498 0.0146,-3.09053 -0.0592,-4.63436 -0.21121,-3.75155 -0.58064,-7.52277 -2.01254,-11.03761 -1.18499,-2.80649 -2.46806,-5.57933 -4.52963,-7.86983 -1.93166,-1.97833 -4.09448,-3.65374 -6.92684,-3.99918 -3.35458,-0.3129 -6.72543,-0.17069 -10.08811,-0.0584 -1.76621,0.10693 -3.55303,0.17686 -5.29186,0.53658 -0.42224,0.0874 -1.60017,0.5907 -1.24726,0.34296 2.0278,-1.42357 7.64801,-4.49569 4.86346,-2.96854 -0.19795,0.14663 -0.47317,0.27794 -0.55098,0.54423 -0.031,0.106 0.0737,0.40449 -0.009,0.33117 -0.22933,-0.20364 -0.0674,-0.17245 0.0582,-0.1843 1.20436,-0.1286 2.39029,-0.39267 3.54189,-0.76859 1.29008,-0.44507 2.55626,-0.92307 3.79524,-1.49917 0.47536,-0.22103 1.85577,-0.97208 1.41111,-0.6944 -1.20756,0.75407 -7.27708,4.27117 -3.69237,2.14658 0.21617,-0.1795 0.47021,-0.32133 0.6485,-0.5385 0.71609,-0.87225 0.2071,-2.9423 0.3649,-3.97844 -0.059,-3.41453 -0.2239,-6.86634 -1.20247,-10.16111 -1.05333,-2.82842 -2.06195,-4.70798 -4.8413,-6.1198 -0.35873,-0.13284 -0.70847,-0.29308 -1.07618,-0.39851 -2.23854,-0.6418 -4.62021,-0.25434 -6.89275,-0.09 -3.53376,0.47093 -6.96972,1.34554 -10.28746,2.66984 -0.54423,0.21576 -1.09598,0.41343 -1.63268,0.64728 -2.25915,0.98434 -4.86517,2.59703 2.6681,-1.783 0.55965,-0.32539 -1.11268,0.66251 -1.65777,1.01175 -1.26649,0.81144 -2.20388,1.4958 -3.43491,2.36618 -2.5193,1.8721 -5.09376,3.78906 -6.94189,6.36482 -0.74967,0.99693 -0.66974,0.68742 0.15649,0.52722 1.28355,-0.30899 2.52358,-0.78031 3.74742,-1.27004 1.55575,-0.77299 3.08164,-1.60504 4.62458,-2.40306 -12.86802,7.44795 -1.15747,0.65004 1.95882,-1.12074 0.5709,-0.0789 -0.28263,0.0236 0.41988,0.003 0.17843,-0.005 0.35438,-0.11931 0.51321,-0.18241 -2.05207,1.18365 -4.10414,2.3673 -6.15622,3.55095 1.56262,-0.77125 2.67009,-2.1588 3.81502,-3.43093 2.53538,-3.1786 4.35542,-6.26768 4.11414,-10.49043 -0.13964,-3.16961 -0.14732,-6.67696 -1.4945,-9.62346 -0.21739,-0.47546 -0.53802,-0.89655 -0.80702,-1.34483 -0.35276,-0.30723 -0.66149,-0.67394 -1.05828,-0.9217 -2.85544,-1.7829 -7.08855,-0.40492 -10.146,-0.13654 -7.26956,1.31703 -14.44643,3.2305 -21.22835,6.20484 -3.04951,1.37393 -6.09166,2.75408 -9.08706,4.24366 -0.96774,0.48124 -3.06927,2.53293 -2.89159,1.46685 0.18889,-1.13338 1.97762,-1.17133 2.94553,-1.79051 0.76772,-0.49113 -1.56318,0.93746 -2.34477,1.40619 -3.44629,2.12295 -6.87587,4.27306 -10.33531,6.37448 -2.49423,1.45044 -5.77451,5.77226 -7.81154,3.72887 -0.2492,-0.24997 0.12336,-1.98527 5e-5,-2.35203 0.0162,-3.11335 -0.16468,-6.23319 -0.77441,-9.29324 -0.7482,-3.12732 -1.63888,-6.80017 -4.36993,-8.8404 -0.44162,-0.32992 -0.94945,-0.56039 -1.42418,-0.84058 -0.53495,-0.20382 -1.05412,-0.45523 -1.60486,-0.61147 -3.69445,-1.04804 -7.65158,-0.25266 -11.3931,-0.0305 -4.73466,0.56419 -9.55634,1.15552 -13.86837,3.33622 1.34655,-0.7908 2.66896,-1.62422 4.03965,-2.3724 0.74303,-0.40558 -1.44118,0.88857 -2.15496,1.34366 -3.88433,2.47655 -7.60357,5.2036 -11.16207,8.12942 -1.56827,1.40556 -2.25342,1.84756 -3.41577,3.37345 -0.34888,0.45799 -0.66371,1.07619 -0.84763,1.63023 -0.0576,0.17347 0.0431,0.44963 -0.11832,0.53543 -2.25502,1.19877 -4.63392,2.14837 -6.95088,3.22256 -0.0752,-0.63096 0.0179,-1.26437 0.045,-1.89848 0.0666,-1.5585 0.0847,-3.11856 0.0761,-4.67837 -0.1191,-4.62771 -0.27134,-9.35221 -1.90364,-13.74011 -0.29517,-0.6167 -0.54713,-1.25601 -0.88553,-1.85009 -1.57834,-2.77093 -4.16148,-4.65369 -7.15616,-5.65145 -0.60408,-0.1191 -1.20127,-0.28104 -1.81223,-0.35731 -3.27057,-0.40826 -6.59291,0.30134 -9.76695,1.00076 -2.42584,0.71825 -4.80325,1.51566 -7.13503,2.5065 -0.99051,0.4209 -2.13617,2.04391 -2.94186,1.33038 -0.1929,-0.17083 7.87048,-4.73002 -0.56997,0.12568 -5.71664,3.67878 -11.30401,7.58855 -16.49188,11.9902 -0.0545,0.0311 -7.45411,6.86284 -8.81378,2.77396 -0.31613,-2.03571 -0.56684,-4.07625 -0.76159,-6.12719 -0.39384,-2.69396 -0.69746,-5.4569 -2.44587,-7.67212 -0.30804,-0.31506 -0.58167,-0.66792 -0.92413,-0.94518 -2.48354,-2.0107 -6.08108,-2.01146 -9.08347,-2.05742 -0.9527,0.0786 -1.9087,0.12407 -2.85809,0.23572 -7.54375,0.88712 -14.82801,3.23873 -21.74396,6.32454 -2.83524,-0.0314 -0.77198,-0.11921 -6.39783,3.34212 -5.68906,3.50022 -11.22181,7.3132 -16.49857,11.4058 0,0 -6.65796,2.66691 -6.65796,2.66691 z"
       inkscape:connector-curvature="0" />
    <path
       sodipodi:type="arc"
       style="fill:none;stroke:#000000;stroke-width:1.20000005;stroke-miterlimit:4;stroke-dasharray:none"
       id="path4319"
       sodipodi:cx="487.5"
       sodipodi:cy="352.36218"
       sodipodi:rx="26.785715"
       sodipodi:ry="12.142858"
       d="m 514.28572,352.36218 c 0,6.70632 -11.99238,12.14286 -26.78572,12.14286 -14.79334,0 -26.78572,-5.43654 -26.78572,-12.14286 0,-6.70631 11.99238,-12.14285 26.78572,-12.14285 14.79334,0 26.78572,5.43654 26.78572,12.14285 z" />
    <path
       style="fill:none;stroke:#000000;stroke-width:1px;stroke-linecap:butt;stroke-linejoin:miter;stroke-opacity:1"
       d="m 460.71429,352.36218 0,42.14286"
       id="path4321"
       inkscape:connector-curvature="0" />
    <path
       style="fill:none;stroke:#000000;stroke-width:1px;stroke-linecap:butt;stroke-linejoin:miter;stroke-opacity:1"
       d="m 514.71429,352.43361 0,42.14286"
       id="path4321-4"
       inkscape:connector-curvature="0" />
    <path
       sodipodi:type="arc"
       style="fill:none;stroke:#000000;stroke-width:1.20000005;stroke-miterlimit:4;stroke-dasharray:none"
       id="path4345"
       sodipodi:cx="263.21429"
       sodipodi:cy="430.57648"
       sodipodi:rx="41.785713"
       sodipodi:ry="36.07143"
       d="m 305.00001,430.57648 c 0,19.9217 -18.7081,36.07143 -41.78572,36.07143 -23.07761,0 -41.78571,-16.14973 -41.78571,-36.07143 0,0 0,0 0,0"
       sodipodi:start="0"
       sodipodi:end="3.1415927"
       sodipodi:open="true"
       transform="matrix(0.64754237,0,0,0.4606428,317.0576,193.39079)" />
    <path
       sodipodi:type="arc"
       style="fill:none;stroke:#000000;stroke-width:1.20000005;stroke-miterlimit:4;stroke-dasharray:none"
       id="path4345-9"
       sodipodi:cx="263.21429"
       sodipodi:cy="430.57648"
       sodipodi:rx="41.785713"
       sodipodi:ry="36.07143"
       d="m 305.00001,430.57648 c 0,19.9217 -18.7081,36.07143 -41.78572,36.07143 -23.07761,0 -41.78571,-16.14973 -41.78571,-36.07143 0,0 0,0 0,0"
       sodipodi:start="0"
       sodipodi:end="3.1415927"
       sodipodi:open="true"
       transform="matrix(0.64754237,0,0,0.4606428,317.5576,185.14078)" />
    <path
       sodipodi:type="arc"
       style="fill:none;stroke:#000000;stroke-width:1.20000005;stroke-miterlimit:4;stroke-dasharray:none"
       id="path4345-9-2"
       sodipodi:cx="263.21429"
       sodipodi:cy="430.57648"
       sodipodi:rx="41.785713"
       sodipodi:ry="36.07143"
       d="m 305.00001,430.57648 c 0,19.9217 -18.7081,36.07143 -41.78572,36.07143 -23.07761,0 -41.78571,-16.14973 -41.78571,-36.07143 0,0 0,0 0,0"
       sodipodi:start="0"
       sodipodi:end="3.1415927"
       sodipodi:open="true"
       transform="matrix(0.64754237,0,0,0.4606428,317.09331,174.71221)" />
    <path
       sodipodi:type="arc"
       style="fill:none;stroke:#000000;stroke-width:1.20000005;stroke-miterlimit:4;stroke-dasharray:none"
       id="path4345-9-4"
       sodipodi:cx="263.21429"
       sodipodi:cy="430.57648"
       sodipodi:rx="41.785713"
       sodipodi:ry="36.07143"
       d="m 305.00001,430.57648 c 0,19.9217 -18.7081,36.07143 -41.78572,36.07143 -23.07761,0 -41.78571,-16.14973 -41.78571,-36.07143 0,0 0,0 0,0"
       sodipodi:start="0"
       sodipodi:end="3.1415927"
       sodipodi:open="true"
       transform="matrix(0.64754237,0,0,0.4606428,317.23616,164.96221)" />
    <path
       style="fill:none;stroke:#000000;stroke-width:0.24134786;stroke-linecap:butt;stroke-linejoin:miter;stroke-miterlimit:4;stroke-opacity:1;stroke-dasharray:none"
       d="m 334.65997,896.1204 3.31538,-5.71449"
       id="path4419"
       inkscape:connector-curvature="0" />
    <path
       style="fill:none;stroke:#000000;stroke-width:0.2303469;stroke-linecap:butt;stroke-linejoin:miter;stroke-miterlimit:4;stroke-opacity:1;stroke-dasharray:none"
       d="m 334.71761,895.59863 2.31623,7.45087"
       id="path4419-6"
       inkscape:connector-curvature="0" />
    <path
       style="fill:none;stroke:#000000;stroke-width:0.2935327;stroke-linecap:butt;stroke-linejoin:miter;stroke-miterlimit:4;stroke-opacity:1;stroke-dasharray:none"
       d="m 310.085,896.32284 -4.92396,-5.69144"
       id="path4419-7"
       inkscape:connector-curvature="0" />
    <path
       style="fill:none;stroke:#000000;stroke-width:0.28015307;stroke-linecap:butt;stroke-linejoin:miter;stroke-miterlimit:4;stroke-opacity:1;stroke-dasharray:none"
       d="m 309.99939,895.80317 -3.44003,7.42082"
       id="path4419-6-1"
       inkscape:connector-curvature="0" />
    <path
       style="fill:#ffffff;stroke:#000000;stroke-width:0.57142859999999995;stroke-miterlimit:4;stroke-dasharray:none"
       d="m 458.77778,178.12026 c -10.33352,-6.49511 -16.10021,-17.05877 -21.20512,-38.84445 -2.2418,-9.56709 -3.85068,-13.69654 -5.45683,-14.00586 -1.25276,-0.24126 -11.18117,4.03435 -22.06316,9.50135 -27.46353,13.79739 -44.46689,18.78601 -64.03081,18.78601 -17.14046,0 -25.92433,-8.14921 -27.49871,-25.51185 l -0.76082,-8.39041 -11.33984,-0.77725 c -13.34362,-0.91459 -20.66462,-4.81926 -24.60507,-13.12313 -5.58876,-11.777456 -4.29565,-19.340214 3.30688,-19.340214 4.3058,0 10.14294,-3.571077 10.14294,-6.205299 0,-0.966666 -4.17857,-4.160877 -9.28571,-7.098247 l -9.28572,-5.340674 0,-7.051399 c 0,-7.040126 0.009,-7.053906 5.82494,-8.619891 8.48158,-2.283853 12.11613,-1.440956 11.66177,2.70451 -0.31492,2.873223 0.11328,3.250137 2.85714,2.514885 1.77517,-0.47568 3.93728,-0.87365 4.80469,-0.884378 0.86741,-0.01073 3.15096,-1.465936 5.07456,-3.233793 12.02736,-11.053613 23.64655,-16.419433 38.42016,-17.742691 10.71554,-0.959782 14.21389,1.030119 14.21389,8.085035 0,10.762572 3.46481,11.048017 16.28651,1.341744 12.13947,-9.189817 19.85926,-12.684554 28.10732,-12.724142 9.53804,-0.04578 12.63496,3.76808 13.73737,16.917584 0.58345,6.959471 1.44241,10.193899 2.70715,10.193899 1.01889,0 5.58636,-3.295528 10.14995,-7.323393 4.56357,-4.027867 10.402,-8.221458 12.97427,-9.319092 5.78997,-2.470687 21.09063,-2.827436 23.82805,-0.555573 1.96288,1.629037 2.46375,3.332906 4.32069,14.698058 1.06524,6.519735 3.10867,6.771178 11.20271,1.378498 14.81458,-9.870231 34.50169,-17.449927 45.32358,-17.449927 6.15831,0 6.34797,0.179241 7.61037,7.192394 0.8895,4.941566 0.71034,5.180102 -8.3787,11.155803 -10.18432,6.695804 -13.75192,11.128677 -10.08795,12.53467 3.49796,1.342297 15.03713,-3.984533 21.25388,-9.811438 7.47632,-7.007499 14.09832,-7.443342 17.35668,-1.142372 2.94779,5.700382 2.89186,12.928086 -0.10004,12.928086 -3.28024,0 -10.57756,4.58931 -10.57756,6.652273 0,2.945671 1.87777,3.156051 8.41464,0.942755 9.27202,-3.139377 15.09842,-1.558487 19.65989,5.334372 2.8583,4.319187 3.77621,7.578703 3.9028,13.859007 l 0.16553,8.21159 -10.1893,0.41634 c -7.94342,0.32457 -10.74599,1.03146 -12.71484,3.20702 -2.42829,2.68323 -2.35326,3.1644 1.94848,12.49716 6.05607,13.13882 9.99442,24.90252 11.08209,33.10184 0.85898,6.47533 0.71734,6.86398 -2.82572,7.75323 -2.05151,0.5149 -9.8401,0.99782 -17.30794,1.07316 -12.0268,0.12133 -14.4827,-0.3057 -21.49823,-3.73808 -5.39711,-2.64056 -9.0415,-5.6511 -11.43964,-9.45 -1.93563,-3.06623 -4.01107,-5.57495 -4.6121,-5.57495 -2.87292,0 -7.45473,4.95003 -12.38489,13.38022 -2.98071,5.09679 -7.60301,11.38325 -10.27178,13.96993 -4.35256,4.21866 -5.84206,4.75228 -14.46209,5.18108 -7.57654,0.37688 -10.5294,-0.1 -13.95636,-2.254 z m -40.26951,-49.89851 c 10.34387,-4.10944 11.04469,-6.22397 11.04469,-33.324836 l 0,-23.989373 -3.75793,-2.955984 c -10.34988,-8.14122 -37.84855,-8.14122 -48.19844,0 l -3.75792,2.955984 0,23.864163 c 0,26.194866 0.54307,28.205406 8.76729,32.458326 9.76799,5.05122 24.64942,5.46229 35.90231,0.99172 z"
       id="path3048"
       inkscape:connector-curvature="0"
       transform="translate(85.791397,277.5625)" />
  </g>
</svg>
